<svg xmlns="http://www.w3.org/2000/svg" viewBox="0 0 200 200" width="200" height="200">
  <defs>
    <linearGradient id="gG" x1="0.5" y1="0" x2="0.5" y2="1">
      <stop offset="0%" stop-color="#4A90D9" stop-opacity="0.9"/>
      <stop offset="50%" stop-color="#3AAFA9" stop-opacity="0.85"/>
      <stop offset="100%" stop-color="#2ECC71" stop-opacity="0.8"/>
    </linearGradient>
    <linearGradient id="gD" x1="0" y1="0" x2="1" y2="1">
      <stop offset="0%" stop-color="#F7DC6F"/>
      <stop offset="40%" stop-color="#D4AC0D"/>
      <stop offset="100%" stop-color="#F1C40F"/>
    </linearGradient>
    <linearGradient id="aG" x1="0" y1="1" x2="0" y2="0">
      <stop offset="0%" stop-color="#D4AC0D"/>
      <stop offset="100%" stop-color="#F7DC6F"/>
    </linearGradient>
    <filter id="gl"><feGaussianBlur stdDeviation="2" result="b"/><feMerge><feMergeNode in="b"/><feMergeNode in="SourceGraphic"/></feMerge></filter>
    <clipPath id="cC"><circle cx="100" cy="100" r="88"/></clipPath>
  </defs>
  <rect width="200" height="200" fill="#0B1A3B" rx="40"/>
  <circle cx="100" cy="100" r="90" fill="none" stroke="rgba(74,144,217,0.15)" stroke-width="3"/>
  <circle cx="100" cy="100" r="88" fill="none" stroke="rgba(74,144,217,0.25)" stroke-width="1"/>
  <g clip-path="url(#cC)" opacity="0.85">
    <circle cx="100" cy="100" r="88" fill="#0D2247"/>
    <!-- Mesh top (blue) -->
    <polygon points="100,15 80,50 120,50" fill="none" stroke="#4A90D9" stroke-width="1" opacity="0.7"/>
    <polygon points="80,50 55,80 100,80" fill="none" stroke="#4A90D9" stroke-width="1" opacity="0.6"/>
    <polygon points="120,50 145,80 100,80" fill="none" stroke="#4A90D9" stroke-width="1" opacity="0.6"/>
    <polygon points="80,50 100,15 60,30" fill="none" stroke="#4A90D9" stroke-width="0.8" opacity="0.45"/>
    <polygon points="120,50 100,15 140,30" fill="none" stroke="#4A90D9" stroke-width="0.8" opacity="0.45"/>
    <polygon points="145,80 165,60 155,45" fill="none" stroke="#4A90D9" stroke-width="0.8" opacity="0.4"/>
    <polygon points="55,80 35,60 45,45" fill="none" stroke="#4A90D9" stroke-width="0.8" opacity="0.4"/>
    <!-- Mesh mid (transition) -->
    <polygon points="30,100 55,80 45,115" fill="none" stroke="#3AAFA9" stroke-width="1" opacity="0.55"/>
    <polygon points="170,100 145,80 155,115" fill="none" stroke="#3AAFA9" stroke-width="1" opacity="0.55"/>
    <polygon points="55,80 45,115 75,110" fill="none" stroke="#3AAFA9" stroke-width="0.8" opacity="0.45"/>
    <polygon points="145,80 155,115 125,110" fill="none" stroke="#3AAFA9" stroke-width="0.8" opacity="0.45"/>
    <!-- Mesh lower (green) -->
    <polygon points="45,115 35,145 65,140" fill="none" stroke="#35B87A" stroke-width="1" opacity="0.55"/>
    <polygon points="155,115 165,145 135,140" fill="none" stroke="#35B87A" stroke-width="1" opacity="0.55"/>
    <polygon points="65,140 55,165 90,160" fill="none" stroke="#2ECC71" stroke-width="1" opacity="0.5"/>
    <polygon points="135,140 145,165 110,160" fill="none" stroke="#2ECC71" stroke-width="1" opacity="0.5"/>
    <polygon points="90,160 110,160 100,185" fill="none" stroke="#27AE60" stroke-width="0.8" opacity="0.4"/>
    <polygon points="55,165 75,180 90,160" fill="none" stroke="#27AE60" stroke-width="0.8" opacity="0.35"/>
    <polygon points="145,165 125,180 110,160" fill="none" stroke="#27AE60" stroke-width="0.8" opacity="0.35"/>
    <!-- Filled accent triangles -->
    <polygon points="120,50 140,30 145,55" fill="#4A90D9" opacity="0.12"/>
    <polygon points="155,115 165,100 170,125" fill="#3AAFA9" opacity="0.1"/>
    <polygon points="65,140 50,155 45,130" fill="#35B87A" opacity="0.1"/>
    <polygon points="110,160 125,175 100,185" fill="#2ECC71" opacity="0.1"/>
    <!-- Gold arrows -->
    <polygon points="100,14 93,32 107,32" fill="url(#aG)" opacity="0.85"/>
    <line x1="155" y1="45" x2="168" y2="28" stroke="#D4AC0D" stroke-width="1.5" opacity="0.6"/>
    <polygon points="168,28 160,33 166,38" fill="#D4AC0D" opacity="0.65"/>
    <polygon points="170,100 163,88 175,92" fill="url(#aG)" opacity="0.5"/>
  </g>
  <text x="100" y="118" text-anchor="middle" font-family="'SF Pro Display','Helvetica Neue',Arial,sans-serif"
        font-size="72" font-weight="900" fill="url(#gD)" filter="url(#gl)" letter-spacing="-3">12</text>
</svg>
